<svg width="41" height="33" viewBox="0 0 41 33" fill="none" xmlns="http://www.w3.org/2000/svg">
<path d="M16.5139 14.9846C18.7774 13.6598 19.959 11.6551 19.959 8.53477C19.959 2.38124 16.2149 0.88208 11.8943 0.88208H0V31.7717H12.2288C16.8128 31.7717 21.1193 29.0785 21.1193 22.8029C21.1193 18.9243 19.6174 16.0567 16.5139 14.9846ZM5.54497 6.15529H10.7483C12.7484 6.15529 14.5493 6.84385 14.5493 9.68528C14.5493 12.3088 13.147 13.3635 11.1682 13.3635H5.54497V6.15529ZM11.4743 26.5247H5.54497V18.0178H11.5882C14.0297 18.0178 15.5743 19.2642 15.5743 22.4281C15.5743 25.5485 13.7307 26.5247 11.4743 26.5247ZM36.9925 5.54516H26.7639V2.50326H36.9925V5.54516ZM41 20.9115C41 14.2961 37.8396 8.77881 32.1095 8.77881C26.5432 8.77881 22.7635 13.9038 22.7635 20.6152C22.7635 27.5793 26.3439 32.3557 32.1095 32.3557C36.4729 32.3557 39.2988 29.9501 40.6583 24.8338H36.2309C35.754 26.7426 33.7894 27.7536 32.2661 27.7536C29.3264 27.7536 27.7818 25.6444 27.7818 22.0621H40.9573C40.9786 21.696 41 21.3038 41 20.9115ZM27.7889 18.1921C27.9526 15.2548 29.547 13.4157 31.9529 13.4157C34.4727 13.4157 35.7398 15.2287 35.9533 18.1921H27.7889Z" fill="#ABABAB"/>
</svg>
