<svg width="33" height="37" viewBox="0 0 33 37" fill="none" xmlns="http://www.w3.org/2000/svg">
<path d="M11.0377 29.5495C11.0377 29.6976 10.8847 29.8161 10.6917 29.8161C10.4722 29.8383 10.3192 29.7198 10.3192 29.5495C10.3192 29.4013 10.4722 29.2829 10.6651 29.2829C10.8647 29.2606 11.0377 29.3791 11.0377 29.5495ZM8.96855 29.2162C8.92198 29.3643 9.05504 29.5347 9.25464 29.5791C9.42762 29.6531 9.62722 29.5791 9.66714 29.431C9.70706 29.2829 9.58065 29.1125 9.38105 29.0459C9.20807 28.994 9.01512 29.0681 8.96855 29.2162ZM11.9093 29.0903C11.7163 29.1421 11.5833 29.2829 11.6032 29.4532C11.6232 29.6013 11.7962 29.6976 11.9958 29.6457C12.1887 29.5939 12.3218 29.4532 12.3018 29.3051C12.2819 29.1644 12.1022 29.0681 11.9093 29.0903ZM16.2871 0.711426C7.05907 0.711426 0 8.50969 0 18.7815C0 26.9945 4.64395 34.0225 11.2772 36.4961C12.1288 36.6664 12.4282 36.0813 12.4282 35.6C12.4282 35.1408 12.4083 32.608 12.4083 31.0528C12.4083 31.0528 7.75101 32.1637 6.77298 28.8459C6.77298 28.8459 6.01452 26.6908 4.92339 26.1354C4.92339 26.1354 3.3998 24.9727 5.02984 24.9949C5.02984 24.9949 6.68649 25.143 7.59798 26.9056C9.05504 29.7642 11.4968 28.9422 12.4482 28.4534C12.6012 27.2685 13.0337 26.4464 13.5127 25.9577C9.79355 25.4985 6.04113 24.8986 6.04113 17.7743C6.04113 15.7377 6.54677 14.7157 7.61129 13.4123C7.43831 12.9309 6.87278 10.9462 7.78427 8.3838C9.1748 7.90242 12.375 10.3834 12.375 10.3834C13.7056 9.96863 15.1361 9.75386 16.5532 9.75386C17.9704 9.75386 19.4008 9.96863 20.7315 10.3834C20.7315 10.3834 23.9317 7.89502 25.3222 8.3838C26.2337 10.9536 25.6681 12.9309 25.4952 13.4123C26.5597 14.7231 27.2117 15.7451 27.2117 17.7743C27.2117 24.9209 23.2929 25.4911 19.5738 25.9577C20.1859 26.5427 20.7048 27.6536 20.7048 29.3939C20.7048 31.8897 20.6849 34.9779 20.6849 35.5852C20.6849 36.0665 20.9909 36.6516 21.8359 36.4813C28.4891 34.0225 33 26.9945 33 18.7815C33 8.50969 25.5151 0.711426 16.2871 0.711426ZM6.46694 26.2539C6.38044 26.328 6.4004 26.4983 6.51351 26.639C6.61996 26.7575 6.77298 26.8093 6.85948 26.7131C6.94597 26.639 6.92601 26.4687 6.8129 26.328C6.70645 26.2095 6.55343 26.1576 6.46694 26.2539ZM5.74839 25.654C5.70182 25.7503 5.76835 25.8688 5.90141 25.9429C6.00786 26.0169 6.14093 25.9947 6.1875 25.891C6.23407 25.7947 6.16754 25.6763 6.03448 25.6022C5.90141 25.5578 5.79496 25.58 5.74839 25.654ZM7.90403 28.2905C7.79758 28.3868 7.8375 28.6089 7.99052 28.7496C8.14355 28.92 8.33649 28.9422 8.42298 28.8237C8.50948 28.7274 8.46956 28.5053 8.33649 28.3645C8.19012 28.1942 7.99052 28.172 7.90403 28.2905ZM7.14557 27.2018C7.03911 27.2759 7.03911 27.4684 7.14557 27.6388C7.25202 27.8091 7.43165 27.8832 7.51815 27.8091C7.6246 27.7128 7.6246 27.5203 7.51815 27.35C7.425 27.1796 7.25202 27.1056 7.14557 27.2018Z" fill="#ABABAB"/>
</svg>
