<svg width="33" height="37" viewBox="0 0 33 37" fill="none" xmlns="http://www.w3.org/2000/svg">
<path d="M7.3867 36.5262H0.545089V12.6145H7.3867V36.5262ZM3.96221 9.35274C1.77449 9.35274 0 7.38608 0 5.0117C1.56588e-08 3.8712 0.417446 2.7774 1.1605 1.97095C1.90356 1.16449 2.91137 0.711426 3.96221 0.711426C5.01305 0.711426 6.02086 1.16449 6.76392 1.97095C7.50697 2.7774 7.92442 3.8712 7.92442 5.0117C7.92442 7.38608 6.1492 9.35274 3.96221 9.35274ZM32.9926 36.5262H26.1658V24.8862C26.1658 22.1121 26.1142 18.5545 22.6087 18.5545C19.0516 18.5545 18.5065 21.5684 18.5065 24.6863V36.5262H11.6723V12.6145H18.234V15.8763H18.3297C19.2431 13.9976 21.4743 12.0149 24.803 12.0149C31.7271 12.0149 33 16.9636 33 23.3912V36.5262H32.9926Z" fill="#ABABAB"/>
</svg>
